<?xml version="1.0" encoding="utf-8"?>
<!-- Generator: Adobe Illustrator 22.0.0, SVG Export Plug-In . SVG Version: 6.00 Build 0)  -->
<svg version="1.1" id="Layer_1" xmlns="http://www.w3.org/2000/svg" xmlns:xlink="http://www.w3.org/1999/xlink" x="0px" y="0px"
	 viewBox="0 0 98.5 98.5" style="enable-background:new 0 0 98.5 98.5;" xml:space="preserve">
<path id="Path_13413" d="M98.5,55.5c0-6.9-3.4-13.5-9-17.7c-1.1-0.8-2.6-1.3-4-1.3c-1.8,0-3.5,0.7-4.7,1.9c-0.2-0.2-0.4-0.4-0.7-0.6
	c-0.9-0.7-1.9-1.1-3-1.2l0.7-7.7c0-0.2,0-0.4,0-0.6c0-3.4-2.8-6.1-6.1-6.1h-0.4c-3.4,0-6.1,2.8-6.1,6.1c0,0.2,0,0.4,0,0.6l0.7,7.7
	c-1,0.2-2,0.6-2.8,1.2c-0.3,0.2-0.5,0.5-0.8,0.7c-0.1-0.1-0.3-0.3-0.4-0.4c0.1-0.5,0.2-1.1,0.2-1.6c0-2-0.6-3.9-1.8-5.6
	c1.2-1.6,1.8-3.5,1.8-5.6c0-5.4-4.6-9.8-10.1-9.5c-1-2.9-3.4-5.1-6.3-6c-1.9-2.4-4.9-3.8-8-3.6c-1.3-3.8-4.9-6.4-9-6.4
	c-3.4,0-6.6,1.8-8.3,4.8c-4.2,0.1-7.8,3.1-8.9,7.2c-4.9,1.8-8.3,6.6-8.3,11.9c0,4.3,2.1,8.1,5.6,10.5c-0.5,1.2-0.8,2.5-0.8,3.8
	c0,2.9,1.3,5.5,3.5,7.3c-0.2,0.7-0.3,1.5-0.3,2.2c0,4.9,3.7,8.9,8.4,9.5L23,67c-1.8,1.3-3.3,3-4.5,4.9L10.2,70
	c-0.3-0.1-0.6-0.1-1-0.1c-2.5,0-4.5,2-4.5,4.5V75c0,0.4,0.1,0.9,0.2,1.3H4.8C2.1,76.3,0,78.4,0,81s2.1,4.8,4.8,4.8H5
	c-0.1,0.4-0.2,0.8-0.2,1.3v0.6c0,2.5,2,4.5,4.5,4.5c0.3,0,0.7,0,1-0.1l8.3-1.9c3.1,5,8.6,8.3,14.9,8.3h0.4c0.9,0,1.8-0.1,2.7-0.2
	l54.5-8.4c4.4-0.7,7.6-4.4,7.6-8.9c0-3.6-2.1-6.7-5.2-8.1c3.3-3.9,5.2-8.9,5.2-14.1L98.5,55.5z M78.2,40.4c4.7,3.6,7.6,9.4,7.6,15.5
	v5.8c0,3.3-0.8,6.4-2.3,9.3l-12.7-2c-0.5-2.3-0.8-4.7-0.8-7v-6.5c0-1.6,0.2-3.2,0.4-4.8c0.4,0,0.8,0.1,1.2,0.1c4.5,0,7.9-2,7.9-4.8
	c0-1.5-1-2.8-2.8-3.7l0.2-2.6C77.3,39.9,77.8,40.1,78.2,40.4L78.2,40.4z M71.3,25.4h0.4c1.6,0,3,1.3,3,3c0,0.1,0,0.2,0,0.3
	l-1.4,15.9l1.2,0.4c1.4,0.4,1.8,1,1.8,1.2c0,0.4-1.7,1.6-4.8,1.6c-3.1,0-4.8-1.2-4.8-1.6c0-0.1,0.4-0.7,1.8-1.2l1.2-0.4l-1.4-15.9
	c0-0.1,0-0.2,0-0.3C68.3,26.8,69.6,25.4,71.3,25.4z M66.2,39.8l0.2,2.5c-1.8,0.9-2.8,2.2-2.8,3.7c0,1.8,1.4,3.2,3.6,4
	c-0.3,1.8-0.5,3.6-0.5,5.4V62c0,2.2,0.2,4.4,0.6,6.5L58,67.1c-0.5-1.7-0.8-3.5-0.8-5.4v-5.8c0-6,2.9-11.8,7.8-15.4
	C65.3,40.2,65.7,40,66.2,39.8z M49,65.7c-0.9-2.2-1.3-4.5-1.3-6.8v-3.3c0-5.9,2.9-11.6,7.7-15.1c0.6-0.4,1.4-0.7,2.1-0.7
	c1,0,1.8,0.4,2.5,1c-3.7,4.1-5.9,9.5-5.9,15.1v5.8c0,1.6,0.2,3.3,0.5,4.8L49,65.7z M49.1,18l0.3,1.6l1.6-0.4
	c0.5-0.1,0.9-0.2,1.4-0.2c3.5,0,6.4,2.9,6.4,6.4c0,1.7-0.6,3.2-1.8,4.4L55.9,31l1.1,1.1c1.2,1.2,1.8,2.8,1.8,4.4c0,0,0,0.1,0,0.1
	c-0.4-0.1-0.9-0.1-1.3-0.1c-1.4,0-2.9,0.5-4,1.3c-2.9,2.1-5.2,4.9-6.7,8.1c-0.6-1.9-1.2-3.7-1.9-5.4c1.5-7.8,6.9-12.3,7-12.3l-1-1.2
	l-1-1.2c-0.2,0.2-4.5,3.7-6.9,10c-3.3-7.6-6.4-12.5-6.6-12.8l-2.7,1.7c0,0.1,2.5,3.9,5.3,9.9c-4.8-1.8-10.2-1.3-10.5-1.3l0.3,3.2
	c2.4-0.2,9.2-0.1,12.3,3.1c1.1,2.7,2.2,5.7,3.2,9c-4.8-2.5-10.6-2.5-10.9-2.5v3.2c0.1,0,7.1,0,11.3,3.4c-0.1,1-0.2,1.9-0.2,2.9v3.3
	c0,2.1,0.3,4.2,0.9,6.3l-9-1.4c-0.5-0.1-1-0.1-1.4-0.2c-3.5,0-6.4-2.9-6.4-6.4c0-0.7,0.1-1.5,0.4-2.3l0.5-1.2L28.4,53
	c-1.9-1.2-3-3.2-3-5.4c0-1.3,0.4-2.5,1.1-3.5l1-1.5l-1.6-0.8c-3.2-1.6-5.2-4.9-5.2-8.5c0-4.2,2.8-8,6.9-9.2l1-0.3l0.1-1
	c0.5-3.1,3.1-5.4,6.3-5.4c0.1,0,0.1,0,0.2,0c0.1,0,0.2,0,0.3,0l1.1,0.1l0.4-1.1c1-2.3,3.3-3.9,5.8-3.9C46,12.7,48.6,14.9,49.1,18z
	 M21.8,54h-1.1c-3.5,0-6.4-2.9-6.4-6.4c0-0.7,0.1-1.5,0.4-2.3l0.5-1.2l-1.1-0.7c-1.9-1.2-3-3.2-3-5.4c0-1.3,0.4-2.5,1.1-3.5l1-1.5
	l-1.6-0.8c-3.2-1.6-5.2-4.9-5.2-8.5c0-4.2,2.8-8,6.9-9.2l1-0.3l0.1-1c0.5-3.1,3.1-5.4,6.3-5.4c0.1,0,0.1,0,0.2,0c0.1,0,0.2,0,0.3,0
	l1.1,0.1L22.8,7c1-2.3,3.3-3.9,5.8-3.9c3.1,0,5.7,2.2,6.2,5.2l0.3,1.6l1.6-0.4c0.5-0.1,0.9-0.2,1.4-0.2c0.7,0,1.4,0.2,2.1,0.4
	c-2.3,0.7-4.3,2.2-5.6,4.4c-4.2,0.1-7.8,3.1-8.9,7.2c-4.9,1.8-8.3,6.6-8.3,11.9c0,4.3,2.1,8.1,5.6,10.5c-0.5,1.2-0.8,2.5-0.8,3.8
	c0,2.9,1.3,5.5,3.5,7.3c-0.2,0.7-0.3,1.5-0.3,2.2c0,2.8,1.2,5.3,3.1,7.1c-0.9,0.3-1.9,0.6-2.7,1L21.8,54z M7.9,75v-0.6
	c0-0.8,0.8-1.4,1.6-1.2l7.6,1.7c-0.2,0.5-0.3,1-0.5,1.5H9.2C8.5,76.3,7.9,75.7,7.9,75z M3.2,81c0-0.9,0.7-1.6,1.6-1.6h4.5H16
	c0,0.5-0.1,1.1-0.1,1.6s0,1.1,0.1,1.6H9.2H4.8C3.9,82.6,3.2,81.9,3.2,81z M9.5,88.9c-0.8,0.2-1.5-0.4-1.5-1.2v-0.6
	c0-0.7,0.6-1.3,1.3-1.3h7.3c0.1,0.5,0.3,1,0.5,1.5L9.5,88.9z M95.3,81c0,2.9-2.1,5.3-4.9,5.8l-54.5,8.4c-0.7,0.1-1.5,0.2-2.2,0.2
	h-0.4c-7.9,0-14.3-6.4-14.3-14.3s6.4-14.3,14.3-14.3h0.4c0.7,0,1.5,0.1,2.2,0.2l54.5,8.4C93.2,75.7,95.3,78.1,95.3,81z M95.3,58.9
	c0,4.9-2,9.6-5.4,13.1l-3.2-0.5c1.5-3,2.2-6.4,2.2-9.8v-5.8c0-5.6-2.2-11.1-5.8-15.2c0.6-0.6,1.5-1,2.4-1c0.8,0,1.5,0.2,2.1,0.7
	c4.8,3.5,7.7,9.2,7.7,15.1L95.3,58.9z"/>
</svg>
